<?xml version="1.0" standalone="no"?>
<!DOCTYPE svg PUBLIC "-//W3C//DTD SVG 20010904//EN"
 "http://www.w3.org/TR/2001/REC-SVG-20010904/DTD/svg10.dtd">
<svg version="1.0" xmlns="http://www.w3.org/2000/svg"
 width="220.000000pt" height="47.000000pt" viewBox="0 0 220.000000 47.000000"
 preserveAspectRatio="xMidYMid meet">
<metadata>
Created by potrace 1.16, written by Peter Selinger 2001-2019
</metadata>
<g transform="translate(0.000000,47.000000) scale(0.011000,-0.018651)"
fill="#000000" stroke="none">
<path d="M8143 2500 c-78 -35 -83 -53 -83 -300 l0 -215 -51 -30 c-110 -65
-239 -215 -300 -351 -91 -200 -93 -479 -5 -677 61 -139 193 -296 305 -362 l51
-30 0 -215 c0 -247 5 -265 83 -300 38 -18 68 -20 326 -20 271 0 287 1 329 21
78 38 82 52 82 299 l0 215 51 30 c74 43 189 161 243 247 43 70 106 220 106
253 0 11 -12 15 -46 15 -39 0 -51 5 -80 34 l-34 34 0 112 0 112 34 34 c29 29
41 34 80 34 34 0 46 4 46 15 0 33 -63 183 -106 253 -55 87 -169 204 -242 247
l-52 30 0 215 c0 247 -4 261 -82 299 -42 20 -58 21 -329 21 -258 0 -288 -2
-326 -20z"/>
<path d="M5378 2039 c-23 -13 -24 -80 -3 -180 9 -40 18 -112 22 -161 8 -115
28 -120 38 -10 3 42 15 122 26 177 10 55 19 112 19 126 0 48 -57 75 -102 48z"/>
<path d="M106 2003 c-13 -62 -76 -422 -76 -432 0 -6 6 -11 13 -11 8 0 47 74
91 174 42 95 84 183 92 194 22 32 75 42 227 42 l137 0 0 -705 0 -705 -38 0
c-97 0 -192 -13 -192 -26 0 -12 58 -14 320 -14 262 0 320 2 320 14 0 13 -95
26 -192 26 l-38 0 0 705 0 705 153 0 c83 0 168 -5 188 -10 44 -12 55 -32 139
-242 42 -107 67 -158 77 -158 13 0 14 9 10 48 -4 26 -14 127 -23 224 -10 98
-21 183 -25 189 -6 10 -20 9 -59 -4 -46 -15 -110 -17 -530 -17 -399 0 -484 2
-520 15 -59 21 -68 19 -74 -12z"/>
<path d="M6220 2014 c-173 -45 -338 -183 -423 -354 -71 -143 -90 -225 -90
-400 0 -175 19 -257 90 -400 39 -78 63 -110 133 -180 132 -133 266 -190 442
-190 114 0 176 14 273 60 253 121 405 388 405 710 0 259 -98 482 -275 630 -61
50 -191 114 -263 129 -73 15 -226 13 -292 -5z m305 -45 c124 -46 228 -188 275
-374 33 -128 45 -313 32 -462 -21 -236 -77 -390 -179 -492 -93 -92 -205 -129
-332 -111 -182 26 -305 159 -368 398 -35 133 -44 418 -18 574 47 280 170 448
359 488 59 13 167 3 231 -21z"/>
<path d="M12615 2013 c-3 -10 -121 -324 -261 -697 -140 -374 -261 -691 -269
-706 -18 -35 -47 -47 -138 -55 -55 -5 -77 -11 -77 -21 0 -12 41 -14 230 -14
187 0 230 3 230 14 0 9 -22 15 -77 20 -90 8 -113 19 -113 49 1 12 41 128 89
257 l89 235 255 3 254 2 11 -27 c46 -114 182 -497 178 -500 -3 -3 -41 -10 -85
-15 -57 -8 -81 -15 -81 -24 0 -12 47 -14 265 -14 217 0 265 2 265 14 0 9 -25
17 -86 24 -48 7 -88 13 -89 14 -1 2 -121 329 -267 728 -251 687 -266 725 -290
728 -17 2 -28 -3 -33 -15z m80 -550 l113 -308 -230 -3 c-127 -1 -232 -1 -234
1 -1 1 49 143 113 315 64 171 118 310 121 308 2 -2 55 -143 117 -313z"/>
<path d="M13330 2022 c0 -4 -18 -107 -40 -230 -22 -122 -40 -224 -40 -227 0
-3 6 -5 14 -5 8 0 48 77 97 186 58 130 91 191 108 203 20 13 58 17 183 19
l158 4 0 -706 0 -706 -38 0 c-97 0 -192 -13 -192 -26 0 -12 58 -14 320 -14
262 0 320 2 320 14 0 13 -95 26 -192 26 l-38 0 0 705 0 705 153 0 c83 0 169
-5 190 -11 44 -12 55 -31 142 -251 34 -87 64 -148 72 -148 17 0 17 -13 -9 248
-25 245 -19 234 -93 207 -60 -21 -970 -22 -1041 0 -55 17 -74 19 -74 7z"/>
<path d="M15240 2014 c-275 -74 -476 -334 -510 -658 -36 -351 127 -679 405
-810 184 -88 423 -70 618 45 38 23 70 39 71 37 1 -1 17 -27 35 -55 21 -34 40
-53 52 -53 18 0 19 11 19 250 0 239 -1 250 -19 250 -15 0 -24 -16 -41 -72 -81
-271 -247 -418 -469 -418 -216 0 -355 132 -428 408 -24 90 -26 114 -27 312 -1
222 4 269 46 400 80 251 257 378 479 341 100 -16 173 -54 245 -126 79 -78 132
-186 159 -323 5 -24 12 -32 23 -30 15 3 17 19 15 128 -1 69 -5 180 -9 248 -5
106 -8 122 -23 122 -11 0 -26 -18 -41 -50 -13 -27 -24 -50 -25 -50 -1 0 -41
18 -88 40 -121 57 -219 80 -336 79 -53 0 -121 -7 -151 -15z"/>
<path d="M19350 2011 c-102 -32 -172 -84 -225 -165 -72 -107 -85 -275 -31
-389 48 -101 118 -153 370 -277 238 -116 291 -154 338 -241 19 -36 23 -59 23
-129 0 -75 -4 -91 -30 -139 -16 -29 -43 -64 -60 -77 -108 -82 -275 -94 -405
-29 -59 30 -139 116 -173 185 -25 53 -77 218 -77 246 0 8 -7 14 -15 14 -18 0
-18 4 -3 -287 11 -226 12 -233 33 -233 16 0 25 12 39 54 l18 54 47 -29 c77
-48 157 -71 266 -76 120 -6 191 6 277 50 83 41 151 111 191 195 30 63 32 74
32 177 0 100 -2 115 -28 167 -49 99 -118 151 -362 272 -312 155 -360 205 -360
371 0 99 17 145 72 197 80 76 236 97 343 46 116 -55 195 -173 255 -380 11 -39
22 -58 32 -58 14 0 15 17 9 143 -14 306 -17 337 -35 337 -10 0 -27 -20 -41
-50 l-25 -49 -60 40 c-33 22 -89 48 -124 59 -81 26 -214 26 -291 1z"/>
<path d="M1480 1986 c0 -13 66 -26 138 -26 l32 0 0 -700 0 -700 -32 0 c-72 0
-138 -13 -138 -26 0 -12 47 -14 260 -14 217 0 260 2 260 14 0 11 -22 16 -85
21 l-85 7 0 698 0 698 85 7 c63 5 85 10 85 21 0 12 -43 14 -260 14 -213 0
-260 -2 -260 -14z"/>
<path d="M2150 1985 c0 -12 14 -15 74 -15 59 0 78 -4 100 -21 l27 -21 -3 -664
c-3 -602 -5 -665 -20 -680 -11 -11 -47 -20 -107 -27 -65 -7 -91 -14 -91 -23 0
-12 44 -14 240 -14 196 0 240 2 240 14 0 9 -26 16 -92 24 -76 8 -95 14 -110
32 -17 21 -18 60 -17 639 0 399 4 609 10 596 5 -11 133 -315 284 -675 209
-501 278 -656 292 -658 15 -2 57 101 267 663 138 366 251 665 253 665 2 0 3
-283 3 -629 l0 -629 -85 -7 c-63 -5 -85 -10 -85 -21 0 -12 44 -14 265 -14 223
0 265 2 265 14 0 11 -22 16 -90 22 l-90 7 0 697 0 697 90 7 c68 6 90 11 90 22
0 12 -30 14 -174 14 l-174 0 -30 -77 c-16 -43 -121 -323 -233 -622 -138 -371
-206 -540 -212 -530 -4 8 -122 286 -262 619 l-253 605 -186 3 c-161 2 -186 0
-186 -13z"/>
<path d="M4010 1986 c0 -11 22 -16 90 -22 l90 -7 0 -697 0 -697 -90 -7 c-68
-6 -90 -11 -90 -22 0 -12 78 -14 528 -14 l527 0 24 202 c12 112 25 215 28 231
4 22 2 27 -13 27 -15 0 -34 -38 -94 -186 -41 -102 -85 -196 -97 -210 l-22 -24
-266 0 -265 0 0 361 0 361 180 -4 c220 -4 211 2 241 -151 18 -90 25 -107 40
-107 18 0 19 14 19 280 0 262 -1 280 -18 280 -14 0 -21 -17 -36 -92 -25 -125
-33 -143 -62 -157 -15 -7 -89 -11 -194 -11 l-170 0 0 320 0 320 263 0 c216 0
266 -3 284 -15 13 -9 46 -77 89 -185 54 -135 71 -170 86 -170 16 0 18 6 14 33
-3 17 -11 110 -17 205 l-12 172 -528 0 c-451 0 -529 -2 -529 -14z"/>
<path d="M10020 1986 c0 -11 22 -16 88 -21 l87 -7 239 -682 c302 -860 274
-786 301 -786 20 0 34 40 180 520 125 408 161 516 168 498 4 -13 84 -239 177
-503 93 -264 172 -488 175 -498 4 -9 17 -17 29 -17 21 0 34 37 175 503 268
880 282 922 301 941 13 13 43 22 109 29 64 7 91 15 91 24 0 10 -46 13 -230 13
-188 0 -230 -2 -230 -14 0 -10 23 -15 83 -21 85 -7 107 -16 107 -44 0 -9 -77
-271 -172 -584 l-173 -567 -16 47 c-19 55 -390 1112 -396 1129 -3 8 26 14 86
18 69 6 91 11 91 22 0 12 -43 14 -270 14 -227 0 -270 -2 -270 -14 0 -11 22
-16 88 -21 l87 -7 62 -179 62 -178 -127 -416 -127 -416 -16 48 c-22 65 -388
1109 -395 1127 -4 10 15 15 85 20 69 6 91 11 91 22 0 12 -43 14 -270 14 -227
0 -270 -2 -270 -14z"/>
<path d="M16140 1986 c0 -13 66 -26 138 -26 l32 0 0 -700 0 -700 -32 0 c-72 0
-138 -13 -138 -26 0 -12 48 -14 265 -14 217 0 265 2 265 14 0 13 -77 26 -156
26 l-34 0 0 360 0 360 350 0 350 0 0 -359 0 -358 -90 -7 c-68 -6 -90 -11 -90
-22 0 -12 42 -14 265 -14 217 0 265 2 265 14 0 13 -66 26 -137 26 l-33 0 0
700 0 700 33 0 c71 0 137 13 137 26 0 12 -48 14 -265 14 -223 0 -265 -2 -265
-14 0 -11 22 -16 90 -22 l90 -7 0 -318 0 -319 -350 0 -350 0 0 320 0 320 34 0
c79 0 156 13 156 26 0 12 -48 14 -265 14 -217 0 -265 -2 -265 -14z"/>
<path d="M17690 1986 c0 -11 22 -16 90 -22 l90 -7 0 -697 0 -697 -90 -7 c-68
-6 -90 -11 -90 -22 0 -12 75 -14 527 -12 l528 3 22 185 c12 102 24 204 27 228
5 36 3 42 -13 42 -13 0 -27 -24 -56 -97 -71 -181 -124 -295 -142 -309 -14 -10
-74 -13 -280 -14 l-263 0 0 361 0 361 179 -4 c156 -3 182 -5 199 -21 14 -13
27 -52 43 -128 18 -91 25 -109 41 -109 17 0 18 15 18 280 0 263 -1 280 -18
280 -14 0 -21 -17 -36 -87 -25 -127 -33 -149 -62 -162 -16 -7 -88 -11 -194
-11 l-170 0 0 320 0 320 263 0 c216 0 266 -3 284 -15 13 -9 46 -77 89 -185 53
-134 72 -170 86 -170 14 0 17 6 14 23 -3 12 -10 104 -17 205 l-12 182 -529 0
c-450 0 -528 -2 -528 -14z"/>
<path d="M9204 1388 c-32 -15 -44 -51 -44 -128 0 -119 22 -140 146 -140 70 0
78 2 105 29 27 28 29 34 29 111 0 77 -2 83 -29 111 -28 27 -34 29 -108 28 -43
0 -88 -5 -99 -11z"/>
</g>
</svg>
